<svg width="24" height="24" viewBox="0 0 24 24" fill="none" xmlns="http://www.w3.org/2000/svg">
<path d="M3.24124 12.7132C3.11674 12.4975 3.05448 12.3897 3.01963 12.2234C2.99346 12.0985 2.99346 11.9015 3.01963 11.7766C3.05448 11.6103 3.11674 11.5025 3.24124 11.2868C4.27015 9.50484 7.33276 5 12 5C16.6672 5 19.7299 9.50484 20.7588 11.2868C20.8833 11.5025 20.9455 11.6103 20.9804 11.7766C21.0065 11.9015 21.0065 12.0985 20.9804 12.2234C20.9455 12.3897 20.8833 12.4975 20.7588 12.7132C19.7299 14.4952 16.6672 19 12 19C7.33276 19 4.27015 14.4952 3.24124 12.7132Z" stroke="#878DB6" stroke-width="2" stroke-linecap="round" stroke-linejoin="round"/>
<path d="M12 15C13.5148 15 14.7427 13.6569 14.7427 12C14.7427 10.3431 13.5148 9 12 9C10.4852 9 9.25726 10.3431 9.25726 12C9.25726 13.6569 10.4852 15 12 15Z" stroke="#878DB6" stroke-width="2" stroke-linecap="round" stroke-linejoin="round"/>
</svg>
