<svg width="390" height="278" viewBox="0 0 390 278" fill="none" xmlns="http://www.w3.org/2000/svg">
<path d="M103.103 94.788C103.103 85.5893 110.63 78.1323 119.914 78.1323H234.224C243.508 78.1323 251.034 85.5893 251.034 94.788C251.034 103.987 243.508 111.444 234.224 111.444H321.638C330.922 111.444 338.448 118.901 338.448 128.099C338.448 137.298 330.922 144.755 321.638 144.755H353.017C362.301 144.755 369.828 152.212 369.828 161.411C369.828 170.609 362.301 178.066 353.017 178.066H314.914C305.63 178.066 298.103 185.523 298.103 194.722C298.103 203.92 305.63 211.377 314.914 211.377H373.19C382.474 211.377 390 218.834 390 228.033C390 237.232 382.474 244.689 373.19 244.689H308.19C317.474 244.689 325 252.146 325 261.344C325 270.543 317.474 278 308.19 278H169.224C159.94 278 152.414 270.543 152.414 261.344C152.414 252.146 159.94 244.689 169.224 244.689H86.2931C77.009 244.689 69.4828 237.232 69.4828 228.033C69.4828 218.834 77.009 211.377 86.2931 211.377H32.5H16.8103C7.52625 211.377 0 203.92 0 194.722C0 185.523 7.52625 178.066 16.8103 178.066H104.224C113.508 178.066 121.034 170.609 121.034 161.411C121.034 152.212 113.508 144.755 104.224 144.755H66.1207C56.8366 144.755 49.3103 137.298 49.3103 128.099C49.3103 118.901 56.8366 111.444 66.1207 111.444H119.914C110.63 111.444 103.103 103.987 103.103 94.788Z" fill="#F0F2FF"/>
<path d="M32.5 211.377C41.7841 211.377 49.3103 218.834 49.3103 228.033C49.3103 237.232 41.7841 244.689 32.5 244.689C23.2159 244.689 15.6897 237.232 15.6897 228.033C15.6897 218.834 23.2159 211.377 32.5 211.377Z" fill="#F0F2FF"/>
<path d="M93.2146 7.99999C93.2146 3.58172 96.7963 0 101.215 0H269.135C273.553 0 277.135 3.58172 277.135 8V33.5215H93.2146V7.99999Z" fill="#E1E6FC"/>
<path d="M93.8706 39.7919H278V173.488C278 177.906 274.418 181.488 270 181.488H101.871C97.4523 181.488 93.8706 177.906 93.8706 173.488V39.7919Z" fill="#E1E6FC"/>
<rect x="84" y="14.5555" width="181.175" height="167.323" rx="6" stroke="#4A67F4" stroke-width="4"/>
<line x1="82" y1="44.8201" x2="264.53" y2="44.8201" stroke="#4A67F4" stroke-width="4"/>
<ellipse cx="102.502" cy="30.3465" rx="4.62938" ry="4.61253" fill="#4A67F4"/>
<ellipse cx="124.987" cy="30.3465" rx="4.62938" ry="4.61253" fill="#4A67F4"/>
<ellipse cx="147.473" cy="30.3465" rx="4.62938" ry="4.61253" fill="#4A67F4"/>
<path d="M47.2752 29.9715C50.9888 29.9715 53.9993 26.9621 53.9993 23.2497C53.9993 19.5374 50.9888 16.528 47.2752 16.528C43.5615 16.528 40.551 19.5374 40.551 23.2497C40.551 26.9621 43.5615 29.9715 47.2752 29.9715Z" stroke="#A3B3FF" stroke-width="4"/>
<path d="M349.655 78.421C353.369 78.421 356.379 75.4116 356.379 71.6992C356.379 67.9869 353.369 64.9774 349.655 64.9774C345.942 64.9774 342.931 67.9869 342.931 71.6992C342.931 75.4116 345.942 78.421 349.655 78.421Z" fill="#A3B3FF"/>
<path d="M44.8276 47.0526L63.5616 65.78M63.8464 47.0526L45.1124 65.78L63.8464 47.0526Z" stroke="#A3B3FF" stroke-width="4" stroke-linecap="round" stroke-linejoin="round"/>
<path d="M163.706 238.154L132.638 207.351M132.166 238.154L163.234 207.351L132.166 238.154Z" stroke="#A3B3FF" stroke-width="4" stroke-linecap="round" stroke-linejoin="round"/>
<path d="M26.8965 156.842C23.1828 156.842 20.1723 159.851 20.1723 163.564C20.1723 167.276 23.1828 170.285 26.8965 170.285C30.6101 170.285 33.6206 167.276 33.6206 163.564C33.6206 159.851 30.6101 156.842 26.8965 156.842Z" stroke="#A3B3FF" stroke-width="4"/>
<path d="M254.644 220.756L240.942 225.794L230.126 212.561L237.805 200.164L238.386 199.225L237.901 198.233C234.893 192.078 232.853 185.396 231.938 178.395L231.795 177.302L230.794 176.839L217.559 170.722L219.317 153.727L233.514 150.388L234.59 150.135L234.948 149.09C237.235 142.427 240.577 136.29 244.764 130.856L245.438 129.981L245.057 128.944L240.017 115.248L253.237 104.454L265.639 112.13L266.577 112.711L267.569 112.227C273.726 109.22 280.411 107.18 287.414 106.265L288.507 106.122L288.97 105.121L295.09 91.8904L312.07 93.6134L315.414 107.823L315.667 108.898L316.712 109.257C323.378 111.542 329.517 114.883 334.953 119.069L335.828 119.742L336.864 119.362L350.566 114.323L361.363 127.538L353.685 139.935L353.104 140.874L353.589 141.866C356.597 148.02 358.637 154.703 359.552 161.703L359.695 162.797L360.696 163.26L373.932 169.377L372.208 186.373L358.012 189.711L356.935 189.964L356.577 191.01C354.292 197.689 350.951 203.807 346.745 209.261L346.07 210.136L346.451 211.173L351.491 224.869L338.271 235.663L325.869 227.987L324.931 227.406L323.939 227.89C317.782 230.897 311.097 232.937 304.094 233.852L303.001 233.995L302.538 234.996L296.418 248.227L279.42 246.504L276.076 232.294L275.823 231.219L274.778 230.86C268.112 228.575 261.974 225.234 256.557 221.05L255.682 220.374L254.644 220.756ZM217.059 170.491C217.06 170.492 217.061 170.492 217.061 170.492L217.06 170.492L217.059 170.491ZM337.847 236.009C337.848 236.008 337.848 236.008 337.849 236.008L337.847 236.009Z" fill="#F0F2FF" stroke="#4A67F4" stroke-width="4"/>
<path d="M309.798 170.512C309.798 178.52 303.303 185.013 295.291 185.013C287.278 185.013 280.784 178.52 280.784 170.512C280.784 162.504 287.278 156.011 295.291 156.011C303.303 156.011 309.798 162.504 309.798 170.512Z" stroke="#4A67F4" stroke-width="4"/>
<path d="M329.973 170.512C329.973 189.659 314.446 205.181 295.291 205.181C276.136 205.181 260.609 189.659 260.609 170.512C260.609 151.365 276.136 135.843 295.291 135.843C314.446 135.843 329.973 151.365 329.973 170.512Z" stroke="#4A67F4" stroke-width="4"/>
</svg>
