<svg width="18" height="18" viewBox="0 0 18 18" fill="none" xmlns="http://www.w3.org/2000/svg">
<path d="M2.25 9.75C2.25 9.336 2.586 9 3 9M2.25 12V12.75M3 15.75C2.586 15.75 2.25 15.414 2.25 15M5.25 15.75H6M6 9H5.25V3.75C5.25 2.92125 5.92125 2.25 6.75 2.25H14.25C15.0788 2.25 15.75 2.92125 15.75 3.75V11.25C15.75 12.0788 15.0788 12.75 14.25 12.75H9V12M9 15C9 15.414 8.664 15.75 8.25 15.75M8.25 9C8.664 9 9 9.336 9 9.75M10.5 7.5L13 5M13 5H10.5M13 5V7" stroke="#878DB6" stroke-width="1.5" stroke-linecap="round" stroke-linejoin="round"/>
</svg>
